<?xml version="1.0" encoding="UTF-8"?>
<svg version="1.1" xmlns="http://www.w3.org/2000/svg" width="408" height="612">
<path d="M0 0 C20.58340555 0.1073038 41.16677497 0.21983025 61.75011349 0.33933926 C71.30662227 0.39469284 80.86313479 0.44817828 90.41967773 0.49731445 C98.74604352 0.5401302 107.07238159 0.58640149 115.39870459 0.63687855 C119.8102323 0.66350059 124.22175443 0.6883541 128.63331413 0.70907402 C132.78073082 0.72860782 136.92809463 0.75274162 141.07546425 0.78049088 C142.60212624 0.78987863 144.12879986 0.79754766 145.65547943 0.80341911 C147.73086304 0.81165115 149.80611728 0.82591926 151.88145447 0.84178162 C153.62779128 0.85146044 153.62779128 0.85146044 155.40940762 0.8613348 C158 1 158 1 159 2 C159.07258946 4.18639453 159.08373783 6.37500389 159.0625 8.5625 C159.05347656 9.76003906 159.04445313 10.95757812 159.03515625 12.19140625 C159.01775391 13.58166016 159.01775391 13.58166016 159 15 C151.27151676 16.05056461 143.66779927 16.14512195 135.875 16.1328125 C134.51936831 16.13348789 133.16373675 16.13445987 131.80810547 16.13571167 C128.98078243 16.13717758 126.15349119 16.13506995 123.32617188 16.13037109 C119.72550931 16.12467449 116.12492132 16.12795946 112.52426147 16.13394356 C109.7290797 16.13757921 106.93391524 16.13639686 104.13873291 16.13381577 C102.17305451 16.13283644 100.20737541 16.13584157 98.24169922 16.13894653 C91.74195535 16.12203587 85.44231546 15.87573052 79 15 C79.495 16.485 79.495 16.485 80 18 C80.07869837 19.70048322 80.09765685 21.40401297 80.08229065 23.10624695 C80.07525116 24.1621402 80.06821167 25.21803345 80.06095886 26.30592346 C80.04801285 27.46397995 80.03506683 28.62203644 80.02172852 29.81518555 C80.01212097 31.03481995 80.00251343 32.25445435 79.99261475 33.51104736 C79.96526466 36.85585928 79.93336756 40.20057029 79.89946485 43.54531837 C79.86510538 47.04066385 79.83653643 50.53605649 79.80735779 54.03144836 C79.75122028 60.65063387 79.68986213 67.26976032 79.62663645 73.8888815 C79.55491053 81.42444412 79.48899223 88.96005401 79.42356598 96.49567354 C79.28884748 111.99717775 79.14661596 127.4986035 79 143 C73.39 143 67.78 143 62 143 C62 101.42 62 59.84 62 17 C41.54 17 21.08 17 0 17 C0 11.39 0 5.78 0 0 Z " fill="#222223" transform="translate(120,199)"/>
<path d="M0 0 C1.44108889 0.0030625 2.88218075 0.00493488 4.32327271 0.00567627 C7.32728596 0.01025571 10.33102759 0.02459712 13.33496094 0.046875 C17.18858098 0.07530896 21.04198925 0.08610447 24.89570427 0.0905571 C27.86390298 0.0947065 30.83205886 0.10451748 33.80023575 0.11643219 C35.22203353 0.12213186 36.64383539 0.12689157 38.0656395 0.13069916 C40.04492409 0.13755385 42.02417766 0.15208236 44.00341797 0.16699219 C45.12956512 0.17382019 46.25571228 0.18064819 47.41598511 0.18768311 C50.0703125 0.328125 50.0703125 0.328125 52.0703125 1.328125 C52.09715562 4.14068781 52.11707438 6.95299741 52.1328125 9.765625 C52.14119141 10.56806641 52.14957031 11.37050781 52.15820312 12.19726562 C52.1668268 14.24107721 52.122594 16.28496402 52.0703125 18.328125 C51.0703125 19.328125 51.0703125 19.328125 48.71018982 19.44837952 C47.66428177 19.44615891 46.61837372 19.44393829 45.54077148 19.44165039 C43.74416077 19.44146912 43.74416077 19.44146912 41.91125488 19.44128418 C40.64245483 19.43616821 39.37365479 19.43105225 38.06640625 19.42578125 C36.90757935 19.42477417 35.74875244 19.42376709 34.55480957 19.42272949 C30.20580055 19.41747827 25.85680558 19.40351716 21.5078125 19.390625 C6.93625 19.3596875 6.93625 19.3596875 -7.9296875 19.328125 C-7.9296875 49.028125 -7.9296875 78.728125 -7.9296875 109.328125 C0.3203125 109.328125 8.5703125 109.328125 17.0703125 109.328125 C17.0703125 114.938125 17.0703125 120.548125 17.0703125 126.328125 C12.03399276 126.42011258 7.00060281 126.49969694 1.96411133 126.54785156 C0.25209664 126.56793005 -1.45984978 126.59519892 -3.17163086 126.62988281 C-5.63672758 126.67856901 -8.1009154 126.70113073 -10.56640625 126.71875 C-11.70888069 126.74971771 -11.70888069 126.74971771 -12.87443542 126.78131104 C-16.51413637 126.78283753 -18.69768152 126.47019421 -21.82739258 124.55371094 C-25.09120477 121.09848948 -26.17824282 118.44198359 -26.19038391 113.70472717 C-26.19746872 112.78089737 -26.20455353 111.85706757 -26.21185303 110.90524292 C-26.20937561 109.89889801 -26.20689819 108.8925531 -26.2043457 107.85571289 C-26.20945663 106.79026749 -26.21456757 105.72482208 -26.21983337 104.62709045 C-26.23374496 101.10159707 -26.23277143 97.57629883 -26.23046875 94.05078125 C-26.23435473 91.6022484 -26.23868919 89.15371623 -26.24345398 86.70518494 C-26.25091951 81.57141943 -26.25062241 76.43772269 -26.24536133 71.30395508 C-26.23956541 64.72192424 -26.25649933 58.14017467 -26.279706 51.55819035 C-26.2944303 46.50103609 -26.29531682 41.44394977 -26.29219627 36.38677788 C-26.29271011 33.95986817 -26.29795949 31.53295471 -26.30800819 29.10606575 C-26.32033009 25.71383452 -26.31360605 22.32215391 -26.30200195 18.92993164 C-26.30964569 17.92561096 -26.31728943 16.92129028 -26.32516479 15.88653564 C-26.25934655 7.19139315 -26.25934655 7.19139315 -22.9296875 3.328125 C-15.69933178 -0.65318115 -8.06173795 -0.0751007 0 0 Z " fill="#185D21" transform="translate(226.9296875,215.671875)"/>
<path d="M0 0 C-0.33 1.65 -0.66 3.3 -1 5 C-1.66 5 -2.32 5 -3 5 C-3.0825 5.70125 -3.165 6.4025 -3.25 7.125 C-4.17027725 10.65272947 -5.88126977 13.06111614 -8 16 C-7.34 16.33 -6.68 16.66 -6 17 C-5.67 15.35 -5.34 13.7 -5 12 C-3.02 12 -1.04 12 1 12 C1.2475 12.61875 1.495 13.2375 1.75 13.875 C3.22047178 16.37480203 4.41403076 16.83316022 7 18 C7.09087891 16.82630859 7.09087891 16.82630859 7.18359375 15.62890625 C7.26738281 14.61699219 7.35117188 13.60507812 7.4375 12.5625 C7.51871094 11.55316406 7.59992188 10.54382813 7.68359375 9.50390625 C8 7 8 7 9 6 C11.08277955 6.17954996 13.12268871 6.51927966 15.1875 6.84375 C16.0846875 6.92109375 16.0846875 6.92109375 17 7 C17.33 6.67 17.66 6.34 18 6 C21.7740698 5.56115467 23.79818854 5.90297526 27.25 7.5625 C30.5552268 10.49213285 31.54049343 12.73638165 32 17 C32.18777824 21.00931908 32.27173398 24.99350359 32 29 C31 30 31 30 27.5625 30.125 C24 30 24 30 22 29 C22.20625 28.360625 22.4125 27.72125 22.625 27.0625 C23.14847264 22.78747342 22.08782441 19.12654053 21 15 C19.68 15.33 18.36 15.66 17 16 C16.67 20.62 16.34 25.24 16 30 C13.36 30 10.72 30 8 30 C7.505 27.525 7.505 27.525 7 25 C6.34 25 5.68 25 5 25 C4.67 25.66 4.34 26.32 4 27 C3.67 26.67 3.34 26.34 3 26 C2.01 28.475 2.01 28.475 1 31 C-1.31 30.67 -3.62 30.34 -6 30 C-6.33 28.35 -6.66 26.7 -7 25 C-7.91523438 25.02320313 -8.83046875 25.04640625 -9.7734375 25.0703125 C-11.55621094 25.09738281 -11.55621094 25.09738281 -13.375 25.125 C-14.55835938 25.14820313 -15.74171875 25.17140625 -16.9609375 25.1953125 C-20 25 -20 25 -22 23 C-21.70530982 18.78089913 -19.9801755 16.08028787 -17.5625 12.6875 C-16.94503906 11.80449219 -16.32757813 10.92148437 -15.69140625 10.01171875 C-15.13324219 9.34785156 -14.57507813 8.68398438 -14 8 C-13.34 8 -12.68 8 -12 8 C-11.731875 7.236875 -11.46375 6.47375 -11.1875 5.6875 C-8.59402754 -0.18193766 -6.34623487 -0.35922084 0 0 Z " fill="#444444" transform="translate(156,372)"/>
<path d="M0 0 C1.8125 2.1875 1.8125 2.1875 3 4 C3.33 3.01 3.66 2.02 4 1 C4.66 1 5.32 1 6 1 C6 0.34 6 -0.32 6 -1 C11.28719856 -4.38922985 15.09081783 -4.28177113 21 -3 C24.0625 -1.9375 24.0625 -1.9375 26 -1 C26.1875 1.875 26.1875 1.875 26 5 C23 7 23 7 20.3125 6.625 C19.549375 6.41875 18.78625 6.2125 18 6 C18 5.01 18 4.02 18 3 C14.75016865 4.08784968 14.75016865 4.08784968 12 6 C11.83333333 8.5 11.83333333 8.5 12 11 C13.03849381 12.25437662 13.03849381 12.25437662 15.3125 12.1875 C18.0779203 11.9945637 19.64045051 11.39825155 22 10 C24.475 11.98 24.475 11.98 27 14 C25.85571683 17.43284952 25.45259103 17.6368219 22.375 19.1875 C18.39996083 21.01885733 15.40853471 21.73475578 11 21 C7.75 18.6875 7.75 18.6875 5 16 C4.38125 15.443125 3.7625 14.88625 3.125 14.3125 C2 13 2 13 2 11 C1.01 11.99 0.02 12.98 -1 14 C-0.34 14 0.32 14 1 14 C0.9375 15.8125 0.9375 15.8125 0 18 C-4.14949372 20.59343357 -6.79799142 21.34962704 -11.625 20.4375 C-15.48406539 19.3706594 -18.17321755 17.91511941 -21 15 C-22.6323871 10.10283871 -22.30287381 6.15470641 -21 1.1875 C-18.92974409 -2.11197035 -18.66722278 -2.50864495 -15.1875 -3.5 C-9.31748491 -4.47833585 -4.8370342 -3.52972766 0 0 Z M-10 3 C-10 3.66 -10 4.32 -10 5 C-10.99 5.495 -10.99 5.495 -12 6 C-10.02 6 -8.04 6 -6 6 C-6.33 5.34 -6.66 4.68 -7 4 C-7.99 3.67 -8.98 3.34 -10 3 Z M-11 11 C-10.67 11.99 -10.34 12.98 -10 14 C-8.68 13.67 -7.36 13.34 -6 13 C-6 12.34 -6 11.68 -6 11 C-7.65 11 -9.3 11 -11 11 Z " fill="#494949" transform="translate(245,382)"/>
<path d="M0 0 C0.33 2.64 0.66 5.28 1 8 C1.33 7.67 1.66 7.34 2 7 C7.26253509 6.38807731 9.8959153 7.75490977 14 11 C15.1482685 13.296537 15.11561175 14.58313167 15.09765625 17.1328125 C15.09443359 17.93847656 15.09121094 18.74414062 15.08789062 19.57421875 C15.07951172 20.41597656 15.07113281 21.25773437 15.0625 22.125 C15.05798828 22.97449219 15.05347656 23.82398438 15.04882812 24.69921875 C15.03702874 26.79950909 15.01909306 28.8997633 15 31 C12.6739143 31.38063221 10.33944736 31.71269945 8 32 C5.72897066 29.72897066 6.67310888 24.1773866 6.57421875 21.1015625 C6.29870057 17.90064237 6.29870057 17.90064237 3.95703125 16.0859375 C3.31121094 15.72757812 2.66539062 15.36921875 2 15 C0.89485234 18.31544299 0.67892369 21.20410111 0.4375 24.6875 C0.35371094 25.86699219 0.26992188 27.04648437 0.18359375 28.26171875 C0.12300781 29.16535156 0.06242187 30.06898438 0 31 C-2.64 31 -5.28 31 -8 31 C-8 20.77 -8 10.54 -8 0 C-3 -1 -3 -1 0 0 Z " fill="#474747" transform="translate(281,371)"/>
<path d="M0 0 C1.44108889 0.0030625 2.88218075 0.00493488 4.32327271 0.00567627 C7.32728596 0.01025571 10.33102759 0.02459712 13.33496094 0.046875 C17.18858098 0.07530896 21.04198925 0.08610447 24.89570427 0.0905571 C27.86390298 0.0947065 30.83205886 0.10451748 33.80023575 0.11643219 C35.22203353 0.12213186 36.64383539 0.12689157 38.0656395 0.13069916 C40.04492409 0.13755385 42.02417766 0.15208236 44.00341797 0.16699219 C45.12956512 0.17382019 46.25571228 0.18064819 47.41598511 0.18768311 C50.0703125 0.328125 50.0703125 0.328125 52.0703125 1.328125 C52.0703125 6.938125 52.0703125 12.548125 52.0703125 18.328125 C51.7403125 18.328125 51.4103125 18.328125 51.0703125 18.328125 C50.7403125 13.708125 50.4103125 9.088125 50.0703125 4.328125 C46.06017051 3.5260966 42.90250901 3.19710005 38.87475586 3.18286133 C37.03275856 3.17329155 37.03275856 3.17329155 35.15354919 3.16352844 C33.83572952 3.16241562 32.51790985 3.1613028 31.16015625 3.16015625 C29.78682928 3.15694056 28.41350265 3.15357625 27.04017639 3.15007019 C24.16797084 3.14409581 21.29579531 3.14222868 18.42358398 3.14282227 C14.74603197 3.14292409 11.06867213 3.12924309 7.39116573 3.11205006 C4.5575726 3.10092816 1.72402601 3.09890307 -1.10958672 3.09943199 C-3.12369592 3.09768115 -5.13779061 3.08684705 -7.15187073 3.07588196 C-8.37671677 3.07895859 -9.60156281 3.08203522 -10.86352539 3.08520508 C-11.94098526 3.08378006 -13.01844513 3.08235504 -14.1285553 3.08088684 C-16.94535583 3.32950794 -18.58300063 3.78098913 -20.9296875 5.328125 C-21.2596875 5.988125 -21.5896875 6.648125 -21.9296875 7.328125 C-22.5896875 7.328125 -23.2496875 7.328125 -23.9296875 7.328125 C-23.82248877 21.74896514 -23.70966998 36.16975188 -23.59034824 50.59049702 C-23.5351113 57.28614471 -23.48156917 63.9817953 -23.43237305 70.67749023 C-23.38474097 77.13546309 -23.33239847 83.59338196 -23.27674675 90.05129051 C-23.25631797 92.51890918 -23.23760577 94.98654267 -23.22061348 97.45418739 C-23.19658117 100.90221146 -23.1665248 104.35013307 -23.13500977 107.7980957 C-23.1292543 108.82524185 -23.12349884 109.852388 -23.11756897 110.91065979 C-23.10778015 111.84875488 -23.09799133 112.78684998 -23.08790588 113.75337219 C-23.08145333 114.56915898 -23.07500078 115.38494577 -23.0683527 116.22545338 C-23.00606688 118.5208452 -23.00606688 118.5208452 -21.9296875 121.328125 C-22.9196875 121.823125 -22.9196875 121.823125 -23.9296875 122.328125 C-25.65794159 119.32203745 -26.18152828 117.16005143 -26.19038391 113.70472717 C-26.19746872 112.78089737 -26.20455353 111.85706757 -26.21185303 110.90524292 C-26.20937561 109.89889801 -26.20689819 108.8925531 -26.2043457 107.85571289 C-26.20945663 106.79026749 -26.21456757 105.72482208 -26.21983337 104.62709045 C-26.23374496 101.10159707 -26.23277143 97.57629883 -26.23046875 94.05078125 C-26.23435473 91.6022484 -26.23868919 89.15371623 -26.24345398 86.70518494 C-26.25091951 81.57141943 -26.25062241 76.43772269 -26.24536133 71.30395508 C-26.23956541 64.72192424 -26.25649933 58.14017467 -26.279706 51.55819035 C-26.2944303 46.50103609 -26.29531682 41.44394977 -26.29219627 36.38677788 C-26.29271011 33.95986817 -26.29795949 31.53295471 -26.30800819 29.10606575 C-26.32033009 25.71383452 -26.31360605 22.32215391 -26.30200195 18.92993164 C-26.30964569 17.92561096 -26.31728943 16.92129028 -26.32516479 15.88653564 C-26.25934655 7.19139315 -26.25934655 7.19139315 -22.9296875 3.328125 C-15.69933178 -0.65318115 -8.06173795 -0.0751007 0 0 Z " fill="#618869" transform="translate(226.9296875,215.671875)"/>
<path d="M0 0 C3.97915159 -0.02886984 7.95827653 -0.04675406 11.9375 -0.0625 C13.07380859 -0.07087891 14.21011719 -0.07925781 15.38085938 -0.08789062 C16.46044922 -0.09111328 17.54003906 -0.09433594 18.65234375 -0.09765625 C20.15269165 -0.10551147 20.15269165 -0.10551147 21.68334961 -0.11352539 C24 0 24 0 25 1 C25.04092937 3.33297433 25.04241723 5.66705225 25 8 C22.69 8 20.38 8 18 8 C17.34 15.26 16.68 22.52 16 30 C13.36 30 10.72 30 8 30 C8 23.07 8 16.14 8 9 C5.36 8.67 2.72 8.34 0 8 C0 5.36 0 2.72 0 0 Z " fill="#585858" transform="translate(200,372)"/>
<path d="M0 0 C1.07507813 -0.00128906 2.15015625 -0.00257813 3.2578125 -0.00390625 C4.38960937 -0.00003906 5.52140625 0.00382812 6.6875 0.0078125 C7.81929687 0.00394531 8.95109375 0.00007813 10.1171875 -0.00390625 C11.19226563 -0.00261719 12.26734375 -0.00132812 13.375 0 C14.86580078 0.00169189 14.86580078 0.00169189 16.38671875 0.00341797 C18.6875 0.1328125 18.6875 0.1328125 19.6875 1.1328125 C19.72842937 3.46578683 19.72991723 5.79986475 19.6875 8.1328125 C16.7175 8.1328125 13.7475 8.1328125 10.6875 8.1328125 C10.81318359 10.26363281 10.81318359 10.26363281 10.94140625 12.4375 C11.0445593 14.29425483 11.14740814 16.15102658 11.25 18.0078125 C11.30607422 18.94496094 11.36214844 19.88210938 11.41992188 20.84765625 C11.46826172 21.74355469 11.51660156 22.63945312 11.56640625 23.5625 C11.6135376 24.38991699 11.66066895 25.21733398 11.70922852 26.06982422 C11.6875 28.1328125 11.6875 28.1328125 10.6875 30.1328125 C8.0475 30.1328125 5.4075 30.1328125 2.6875 30.1328125 C2.3575 23.2028125 2.0275 16.2728125 1.6875 9.1328125 C-0.6225 8.8028125 -2.9325 8.4728125 -5.3125 8.1328125 C-6.3125 7.1328125 -6.3125 7.1328125 -6.4375 4.1328125 C-6.23010789 -0.84459808 -4.49578891 0.00510222 0 0 Z " fill="#4C4B4D" transform="translate(117.3125,371.8671875)"/>
<path d="M0 0 C78.21 0.495 78.21 0.495 158 1 C158 1.33 158 1.66 158 2 C157.21169296 2.01030746 156.42338593 2.02061493 155.6111908 2.03123474 C148.06892129 2.13047736 140.52670869 2.23313448 132.98453426 2.33933926 C129.10990955 2.39378688 125.23527717 2.44705325 121.3605957 2.49731445 C98.31127277 2.78798899 98.31127277 2.78798899 75.27830505 3.67295837 C70.1848745 3.93400761 65.133546 4.01751072 60.03330994 3.91868591 C57.93096988 3.86321675 57.93096988 3.86321675 56 5 C54.62697532 5.09410335 53.24953594 5.1279354 51.87329102 5.12939453 C51.02223282 5.13254669 50.17117462 5.13569885 49.29432678 5.13894653 C48.37348801 5.1369223 47.45264923 5.13489807 46.50390625 5.1328125 C45.55942123 5.13376923 44.61493622 5.13472595 43.64183044 5.13571167 C41.64199761 5.13639293 39.64216258 5.13454242 37.64233398 5.13037109 C34.57856274 5.12502801 31.5149385 5.13031486 28.45117188 5.13671875 C26.51041634 5.13605784 24.5696609 5.13477642 22.62890625 5.1328125 C21.25068443 5.13584885 21.25068443 5.13584885 19.84461975 5.13894653 C18.56330421 5.13421829 18.56330421 5.13421829 17.25610352 5.12939453 C16.50490738 5.12859894 15.75371124 5.12780334 14.97975159 5.12698364 C13 5 13 5 10 4 C8.4840625 4.2784375 8.4840625 4.2784375 6.9375 4.5625 C5.968125 4.706875 4.99875 4.85125 4 5 C3.34 4.34 2.68 3.68 2 3 C1.01 3.495 1.01 3.495 0 4 C0 2.68 0 1.36 0 0 Z " fill="#A1A1A2" transform="translate(120,199)"/>
<path d="M0 0 C2.475 0.99 2.475 0.99 5 2 C5 2.66 5 3.32 5 4 C4.34 4 3.68 4 3 4 C3 4.99 3 5.98 3 7 C4.4370809 7.05422947 5.87475462 7.09289723 7.3125 7.125 C8.51326172 7.15980469 8.51326172 7.15980469 9.73828125 7.1953125 C12.28388576 7.15817322 12.28388576 7.15817322 15 5 C15.99 5 16.98 5 18 5 C18 5.66 18 6.32 18 7 C18.66 7.33 19.32 7.66 20 8 C19.67 8.99 19.34 9.98 19 11 C18.01 11 17.02 11 16 11 C16 12.32 16 13.64 16 15 C16.66 15 17.32 15 18 15 C17.9375 16.8125 17.9375 16.8125 17 19 C12.85050628 21.59343357 10.20200858 22.34962704 5.375 21.4375 C1.51593461 20.3706594 -1.17321755 18.91511941 -4 16 C-5.49084832 11.52745503 -5.49084832 7.47254497 -4 3 C-3.01 3 -2.02 3 -1 3 C-0.67 2.01 -0.34 1.02 0 0 Z M6 12 C6.33 12.99 6.66 13.98 7 15 C8.32 14.67 9.64 14.34 11 14 C11 13.34 11 12.68 11 12 C9.35 12 7.7 12 6 12 Z " fill="#2F2E2E" transform="translate(228,381)"/>
<path d="M0 0 C0.95675125 0.0169693 1.9135025 0.0339386 2.89924622 0.05142212 C4.52179573 0.07672501 4.52179573 0.07672501 6.17712402 0.10253906 C7.35619827 0.12643707 8.53527252 0.15033508 9.75007629 0.17495728 C11.55778252 0.20681625 11.55778252 0.20681625 13.40200806 0.23931885 C15.96021566 0.28569619 18.51837792 0.33463317 21.07649231 0.38589478 C24.98517001 0.46333746 28.89392725 0.53069295 32.80281067 0.59683228 C35.28524397 0.64309844 37.76766635 0.68995445 40.25007629 0.73745728 C41.41902939 0.75730682 42.58798248 0.77715637 43.7923584 0.79760742 C44.88981888 0.82078033 45.98727936 0.84395325 47.11799622 0.86782837 C48.55909004 0.8956691 48.55909004 0.8956691 50.02929688 0.92407227 C53.01889189 1.10001217 55.88856586 1.54753305 58.83210754 2.08901978 C58.83210754 2.41901978 58.83210754 2.74901978 58.83210754 3.08901978 C39.36210754 3.08901978 19.89210754 3.08901978 -0.16789246 3.08901978 C-0.16789246 32.78901978 -0.16789246 62.48901978 -0.16789246 93.08901978 C-0.49789246 93.08901978 -0.82789246 93.08901978 -1.16789246 93.08901978 C-1.17819992 92.18716446 -1.18850739 91.28530914 -1.1991272 90.35612488 C-1.29783929 81.7818553 -1.40044569 73.20764255 -1.50723171 64.63346958 C-1.56197548 60.22731711 -1.61530739 55.82115772 -1.66520691 51.41494751 C-1.71357966 47.14844495 -1.76592956 42.88200675 -1.82083321 38.61558342 C-1.84093251 37.0024473 -1.85969082 35.38929379 -1.87696648 33.77612495 C-1.97629261 24.5944162 -2.23142815 15.46091318 -2.91619778 6.30159092 C-3.03727168 4.56626136 -3.10779547 2.82752946 -3.16789246 1.08901978 C-2.16789246 0.08901978 -2.16789246 0.08901978 0 0 Z " fill="#97B49B" transform="translate(219.1678924560547,231.91098022460938)"/>
<path d="M0 0 C1.98 0 3.96 0 6 0 C6.2475 0.61875 6.495 1.2375 6.75 1.875 C7.79870976 4.15894834 7.79870976 4.15894834 10 4.78125 C12 6 12 6 12.828125 8.6015625 C12.96734375 9.59929687 13.1065625 10.59703125 13.25 11.625 C13.39953125 12.62789063 13.5490625 13.63078125 13.703125 14.6640625 C13.85007813 15.82035156 13.85007813 15.82035156 14 17 C15.32 17.33 16.64 17.66 18 18 C16.35 18 14.7 18 13 18 C12.505 15.525 12.505 15.525 12 13 C11.34 13 10.68 13 10 13 C9.67 13.66 9.34 14.32 9 15 C8.67 14.67 8.34 14.34 8 14 C7.34 15.65 6.68 17.3 6 19 C3.69 18.67 1.38 18.34 -1 18 C-1.33 16.35 -1.66 14.7 -2 13 C-2.99 12.67 -3.98 12.34 -5 12 C-3.68 12 -2.36 12 -1 12 C-1.27034634 9.56282742 -1.27034634 9.56282742 -2 7 C-2.99 6.34 -3.98 5.68 -5 5 C-3.68 5 -2.36 5 -1 5 C-0.67 3.35 -0.34 1.7 0 0 Z " fill="#5E5E5E" transform="translate(151,384)"/>
<path d="M0 0 C3.65316671 1.24976756 4.78065836 1.67098753 7 5 C8.01291751 8.76959175 8.13458526 12.35838317 8.125 16.25 C8.12886719 17.83554687 8.12886719 17.83554687 8.1328125 19.453125 C8 22 8 22 7 23 C0.47457627 23.23728814 0.47457627 23.23728814 -2 22 C-1.79375 21.360625 -1.5875 20.72125 -1.375 20.0625 C-0.85152736 15.78747342 -1.91217559 12.12654053 -3 8 C-4.65 8.33 -6.3 8.66 -8 9 C-8 8.34 -8 7.68 -8 7 C-6.865625 6.5875 -5.73125 6.175 -4.5625 5.75 C-0.90456616 4.43314602 -0.90456616 4.43314602 -0.0625 1.8125 C-0.041875 1.214375 -0.02125 0.61625 0 0 Z " fill="#474847" transform="translate(180,379)"/>
<path d="M0 0 C8.58 0 17.16 0 26 0 C26 5.61 26 11.22 26 17 C20.94537772 17.09190222 15.89365977 17.17151221 10.83886719 17.21972656 C9.12001721 17.23982628 7.40123548 17.26711089 5.68261719 17.30175781 C3.21011511 17.35035034 0.7385179 17.37298435 -1.734375 17.390625 C-2.88459137 17.42159271 -2.88459137 17.42159271 -4.05804443 17.45318604 C-7.7344604 17.45472777 -9.60484811 17.31786956 -12.51660156 14.97558594 C-13.25088379 13.9976709 -13.25088379 13.9976709 -14 13 C-12.82566406 13.16371094 -11.65132812 13.32742188 -10.44140625 13.49609375 C-3.62039293 14.25398412 3.20876389 14.10641255 10.0625 14.0625 C11.41861813 14.05747314 12.77473808 14.05291234 14.13085938 14.04882812 C17.42061994 14.03712079 20.71028594 14.02072211 24 14 C24.08384078 9.72412002 23.84728203 6.23641013 23 2 C15.41 1.67 7.82 1.34 0 1 C0 0.67 0 0.34 0 0 Z " fill="#2A5D33" transform="translate(218,325)"/>
<path d="M0 0 C1.29444031 -0.00307663 2.58888062 -0.00615326 3.92254639 -0.00932312 C5.32108744 -0.00242724 6.71962672 0.00483958 8.11816406 0.01245117 C9.56211303 0.01364441 11.00606277 0.01409583 12.45001221 0.01383972 C15.46591091 0.01539897 18.48168997 0.02364882 21.49755859 0.03710938 C25.36692366 0.05415953 29.23615825 0.05792166 33.10555649 0.05716419 C36.08232879 0.05743569 39.05907247 0.06291261 42.03583527 0.07016563 C43.46321649 0.0733504 44.89060095 0.07531926 46.31798553 0.07605934 C48.30705429 0.07822144 50.29611095 0.0877565 52.28515625 0.09765625 C53.41733582 0.10146805 54.54951538 0.10527985 55.71600342 0.10920715 C58.38378906 0.24291992 58.38378906 0.24291992 60.38378906 1.24291992 C60.38378906 6.85291992 60.38378906 12.46291992 60.38378906 18.24291992 C60.05378906 18.24291992 59.72378906 18.24291992 59.38378906 18.24291992 C59.05378906 13.62291992 58.72378906 9.00291992 58.38378906 4.24291992 C54.37364708 3.44089152 51.21598557 3.11189497 47.18823242 3.09765625 C45.34623512 3.08808647 45.34623512 3.08808647 43.46702576 3.07832336 C42.14920609 3.07721054 40.83138641 3.07609772 39.47363281 3.07495117 C38.10030584 3.07173548 36.72697921 3.06837117 35.35365295 3.06486511 C32.4814474 3.05889073 29.60927187 3.0570236 26.73706055 3.05761719 C23.05950854 3.05771902 19.38214869 3.04403802 15.7046423 3.02684498 C12.87104916 3.01572308 10.03750258 3.01369799 7.20388985 3.01422691 C5.18978064 3.01247608 3.17568596 3.00164197 1.16160583 2.99067688 C-0.0632402 2.99375351 -1.28808624 2.99683014 -2.55004883 3 C-3.6275087 2.99857498 -4.70496857 2.99714996 -5.81507874 2.99568176 C-10.23076582 3.38542643 -12.67994722 5.01302983 -15.61621094 8.24291992 C-15.61621094 5.24291992 -15.61621094 5.24291992 -14.49121094 3.68041992 C-10.14956501 0.35182471 -5.3089413 -0.00666337 0 0 Z " fill="#96AA98" transform="translate(218.6162109375,215.757080078125)"/>
<path d="M0 0 C0.66 0.33 1.32 0.66 2 1 C2 1.33 2 1.66 2 2 C5.3 1.67 8.6 1.34 12 1 C12 1.66 12 2.32 12 3 C9.03 3 6.06 3 3 3 C3.08378906 4.42054688 3.16757813 5.84109375 3.25390625 7.3046875 C3.3570593 9.16144233 3.45990814 11.01821408 3.5625 12.875 C3.61857422 13.81214844 3.67464844 14.74929688 3.73242188 15.71484375 C3.78076172 16.61074219 3.82910156 17.50664062 3.87890625 18.4296875 C3.94960327 19.67081299 3.94960327 19.67081299 4.02172852 20.93701172 C4 23 4 23 3 25 C1.00045254 25.04254356 -1.00041636 25.04080783 -3 25 C-5.22497312 22.77502688 -4.18531128 17.67510941 -4.1875 14.6875 C-4.20586914 13.38522461 -4.20586914 13.38522461 -4.22460938 12.05664062 C-4.22654297 11.21681641 -4.22847656 10.37699219 -4.23046875 9.51171875 C-4.23457764 8.74303467 -4.23868652 7.97435059 -4.24291992 7.18237305 C-3.96690989 4.70272115 -3.31655824 3.11071868 -2 1 C-1.34 0.67 -0.68 0.34 0 0 Z " fill="#414143" transform="translate(125,377)"/>
<path d="M0 0 C1.1482685 2.296537 1.11561175 3.58313167 1.09765625 6.1328125 C1.09443359 6.93847656 1.09121094 7.74414062 1.08789062 8.57421875 C1.07951172 9.41597656 1.07113281 10.25773437 1.0625 11.125 C1.05798828 11.97449219 1.05347656 12.82398438 1.04882812 13.69921875 C1.03702874 15.79950909 1.01909306 17.8997633 1 20 C-1.3260857 20.38063221 -3.66055264 20.71269945 -6 21 C-7.86715507 19.13284493 -7.13245683 16.49606175 -7.13671875 14.015625 C-7.13091797 12.83226562 -7.13091797 12.83226562 -7.125 11.625 C-7.12886719 10.84382813 -7.13273437 10.06265625 -7.13671875 9.2578125 C-7.13100915 5.9234054 -7.06131005 3.18393014 -6 0 C-3 -1 -3 -1 0 0 Z " fill="#3F3F3F" transform="translate(295,382)"/>
<path d="M0 0 C0.763125 0.53625 1.52625 1.0725 2.3125 1.625 C4.86873883 5.22266947 4.32902307 8.72270011 4 13 C3.34 13 2.68 13 2 13 C2 12.34 2 11.68 2 11 C1.01 11.33 0.02 11.66 -1 12 C-1 11.34 -1 10.68 -1 10 C-0.01 9.34 0.98 8.68 2 8 C1.67 6.68 1.34 5.36 1 4 C0.071875 4.515625 -0.85625 5.03125 -1.8125 5.5625 C-5 7 -5 7 -8 6 C-8.33 5.67 -8.66 5.34 -9 5 C-10.72082924 5 -12.34228586 5.5722028 -14 6 C-14 5.01 -14 4.02 -14 3 C-13.34 3 -12.68 3 -12 3 C-12 2.34 -12 1.68 -12 1 C-13.65 0.67 -15.3 0.34 -17 0 C-17.33 0.66 -17.66 1.32 -18 2 C-18.66 1.67 -19.32 1.34 -20 1 C-19.67 0.01 -19.34 -0.98 -19 -2 C-11.76235129 -4.45344024 -6.44623596 -4.58022029 0 0 Z " fill="#5C5C5C" transform="translate(245,382)"/>
<path d="M0 0 C0 7.26 0 14.52 0 22 C-2.64 22 -5.28 22 -8 22 C-7.88566637 19.74943278 -7.75813564 17.49953326 -7.625 15.25 C-7.55539063 13.99703125 -7.48578125 12.7440625 -7.4140625 11.453125 C-6.98332177 7.86090988 -4.8154407 0 0 0 Z " fill="#303132" transform="translate(216,380)"/>
<path d="M0 0 C0.33 0.99 0.66 1.98 1 3 C3.00016466 4.20882096 3.00016466 4.20882096 5 5 C5.66 4.34 6.32 3.68 7 3 C7 3.66 7 4.32 7 5 C8.32 5.33 9.64 5.66 11 6 C11 7.65 11 9.3 11 11 C7.90765472 11.89893758 5.09202643 12.16349234 1.875 12.1875 C0.57175781 12.20876953 0.57175781 12.20876953 -0.7578125 12.23046875 C-3 12 -3 12 -5 10 C-4.76236269 5.60370982 -2.85856441 3.22741144 0 0 Z " fill="#515151" transform="translate(139,385)"/>
<path d="M0 0 C17.49 0 34.98 0 53 0 C52.67 0.99 52.34 1.98 52 3 C34.84 3 17.68 3 0 3 C0 2.01 0 1.02 0 0 Z " fill="#19191B" transform="translate(125,212)"/>
<path d="M0 0 C0.99 1.485 0.99 1.485 2 3 C4.49092811 4.24546405 5.41080733 3.7767578 8 3 C8 3.66 8 4.32 8 5 C10.31 5 12.62 5 15 5 C13.68 5.33 12.36 5.66 11 6 C11.33 6.99 11.66 7.98 12 9 C10.0625 11.6875 10.0625 11.6875 8 14 C4.90108642 13.07870137 3.27211886 12.32841931 1.1875 9.8125 C-0.26040295 6.38325617 -0.2168384 3.68625273 0 0 Z " fill="#555555" transform="translate(223,387)"/>
<path d="M0 0 C0.66 0.33 1.32 0.66 2 1 C2 5.62 2 10.24 2 15 C-16.15 14.67 -34.3 14.34 -53 14 C-53 13.67 -53 13.34 -53 13 C-35.51 13 -18.02 13 0 13 C0 8.71 0 4.42 0 0 Z " fill="#286532" transform="translate(276,219)"/>
<path d="M0 0 C0.33 0 0.66 0 1 0 C1 1.65 1 3.3 1 5 C-4.05365292 5.09897181 -9.10674024 5.17151603 -14.16113281 5.21972656 C-15.87998279 5.23982628 -17.59876452 5.26711089 -19.31738281 5.30175781 C-21.78988489 5.35035034 -24.2614821 5.37298435 -26.734375 5.390625 C-27.88459137 5.42159271 -27.88459137 5.42159271 -29.05804443 5.45318604 C-32.7344604 5.45472777 -34.60484811 5.31786956 -37.51660156 2.97558594 C-38.25088379 1.9976709 -38.25088379 1.9976709 -39 1 C-37.50521118 1.23771118 -37.50521118 1.23771118 -35.98022461 1.48022461 C-32.09246886 2.03387596 -28.24342666 2.20600809 -24.31640625 2.31640625 C-23.61603745 2.33718735 -22.91566864 2.35796844 -22.19407654 2.37937927 C-19.98363894 2.44412465 -17.77309515 2.50340608 -15.5625 2.5625 C-14.05272393 2.60575681 -12.54295812 2.64937323 -11.03320312 2.69335938 C-7.35557804 2.79972748 -3.67783709 2.90120002 0 3 C0 2.01 0 1.02 0 0 Z " fill="#375E3C" transform="translate(243,337)"/>
<path d="M0 0 C0.99 0 1.98 0 3 0 C3 0.66 3 1.32 3 2 C20.49 2 37.98 2 56 2 C56 2.33 56 2.66 56 3 C55.43703217 3.01030746 54.87406433 3.02061493 54.29403687 3.03123474 C48.4213374 3.13962659 42.54878126 3.25419679 36.67626953 3.37231445 C34.48619595 3.41555877 32.29609093 3.45724105 30.10595703 3.49731445 C26.95335427 3.55527197 23.80090819 3.61889255 20.6484375 3.68359375 C19.1855983 3.70866249 19.1855983 3.70866249 17.69320679 3.73423767 C13.84365001 3.81764902 10.25629427 3.95332553 6.45947266 4.64477539 C5.64784668 4.76199951 4.8362207 4.87922363 4 5 C3.34 4.34 2.68 3.68 2 3 C1.01 3.495 1.01 3.495 0 4 C0 2.68 0 1.36 0 0 Z " fill="#29292C" transform="translate(120,199)"/>
<path d="M0 0 C0.66 0 1.32 0 2 0 C3.36952673 2.73905345 3.12621361 4.97087332 3 8 C2.67 8.66 2.34 9.32 2 10 C-3.25530593 11.34751434 -8.61579398 11.09576651 -14 11 C-14 10.34 -14 9.68 -14 9 C-11.35541621 7.67770811 -9.32238699 7.90322806 -6.375 7.9375 C-4.87066406 7.95103516 -4.87066406 7.95103516 -3.3359375 7.96484375 C-2.56507813 7.97644531 -1.79421875 7.98804688 -1 8 C-1 6.68 -1 5.36 -1 4 C-1.66 3.34 -2.32 2.68 -3 2 C-2.01 2 -1.02 2 0 2 C0 1.34 0 0.68 0 0 Z " fill="#111316" transform="translate(275,202)"/>
<path d="M0 0 C2.475 0.99 2.475 0.99 5 2 C5 2.66 5 3.32 5 4 C4.34 4 3.68 4 3 4 C3.33 5.32 3.66 6.64 4 8 C2.35 9.32 0.7 10.64 -1 12 C-1.66 11.34 -2.32 10.68 -3 10 C-3.33 10 -3.66 10 -4 10 C-4 7.69 -4 5.38 -4 3 C-3.01 3 -2.02 3 -1 3 C-0.67 2.01 -0.34 1.02 0 0 Z " fill="#383838" transform="translate(228,381)"/>
<path d="M0 0 C5.41538462 -0.36923077 5.41538462 -0.36923077 8.375 1.5 C8.91125 1.995 9.4475 2.49 10 3 C9.360625 3.5775 8.72125 4.155 8.0625 4.75 C6.01776132 6.98062401 5.41794801 8.07436391 5 11 C3.2925002 9.71937515 1.62626404 8.38232443 0 7 C0 5.33333333 0 3.66666667 0 2 C0.99 1.67 1.98 1.34 3 1 C2.01 0.67 1.02 0.34 0 0 Z " fill="#656565" transform="translate(283,378)"/>
<path d="M0 0 C1.670625 0.061875 1.670625 0.061875 3.375 0.125 C3.045 1.775 2.715 3.425 2.375 5.125 C1.715 5.125 1.055 5.125 0.375 5.125 C0.045 6.115 -0.285 7.105 -0.625 8.125 C-1.615 7.795 -2.605 7.465 -3.625 7.125 C-4.95606622 6.78272583 -6.28900079 6.44748257 -7.625 6.125 C-4.84462617 0.16705607 -4.84462617 0.16705607 0 0 Z " fill="#5A5A5A" transform="translate(152.625,371.875)"/>
<path d="M0 0 C0.33 0 0.66 0 1 0 C1 1.98 1 3.96 1 6 C0.34 6 -0.32 6 -1 6 C-1 6.66 -1 7.32 -1 8 C-3.64 8 -6.28 8 -9 8 C-9.33 7.01 -9.66 6.02 -10 5 C-7.44931155 2.64551835 -6.28982642 2.01672076 -2.75 1.8125 C-1.38875 1.9053125 -1.38875 1.9053125 0 2 C0 1.34 0 0.68 0 0 Z " fill="#2B2B2D" transform="translate(266,394)"/>
<path d="M0 0 C1 2 2 4 3 6 C3.99 6.33 4.98 6.66 6 7 C6 8.98 6 10.96 6 13 C4.68 13 3.36 13 2 13 C2 12.34 2 11.68 2 11 C1.01 10.67 0.02 10.34 -1 10 C-1.02689216 8.52093108 -1.04634621 7.04172517 -1.0625 5.5625 C-1.07410156 4.73878906 -1.08570313 3.91507812 -1.09765625 3.06640625 C-1 1 -1 1 0 0 Z " fill="#303030" transform="translate(290,389)"/>
<path d="M0 0 C1.134375 0.020625 2.26875 0.04125 3.4375 0.0625 C3.7675 0.7225 4.0975 1.3825 4.4375 2.0625 C3.13113006 4.67523988 2.15340242 5.03486124 -0.5625 6.0625 C-3.8125 6.1875 -3.8125 6.1875 -6.5625 6.0625 C-6.8925 5.0725 -7.2225 4.0825 -7.5625 3.0625 C-6.9025 3.0625 -6.2425 3.0625 -5.5625 3.0625 C-5.2325 2.4025 -4.9025 1.7425 -4.5625 1.0625 C-3.5625 0.0625 -3.5625 0.0625 0 0 Z " fill="#2E2E2E" transform="translate(237.5625,395.9375)"/>
<path d="M0 0 C2 3 2 3 3 5 C3.99 3.68 4.98 2.36 6 1 C6 4.3 6 7.6 6 11 C3.03 10.505 3.03 10.505 0 10 C-0.19412181 8.52168779 -0.38012131 7.04230684 -0.5625 5.5625 C-0.66691406 4.73878906 -0.77132812 3.91507812 -0.87890625 3.06640625 C-0.91886719 2.38449219 -0.95882812 1.70257813 -1 1 C-0.67 0.67 -0.34 0.34 0 0 Z " fill="#2C2C2C" transform="translate(165,391)"/>
<path d="M0 0 C0.804375 -0.165 1.60875 -0.33 2.4375 -0.5 C5.06834251 -1.01333512 6.49324027 -0.83558658 9 0 C9 0.99 9 1.98 9 3 C3.96266834 4.5111995 -0.88171027 3.64599773 -6 3 C-6 2.01 -6 1.02 -6 0 C-3 -1 -3 -1 0 0 Z " fill="#111214" transform="translate(189,338)"/>
<path d="M0 0 C0.33 0.66 0.66 1.32 1 2 C2.65 1.67 4.3 1.34 6 1 C6.38133299 2.9914056 6.71325582 4.99279077 7 7 C6.67 7.33 6.34 7.66 6 8 C3.66055264 7.71269945 1.3260857 7.38063221 -1 7 C-0.67 4.69 -0.34 2.38 0 0 Z " fill="#3F403F" transform="translate(151,395)"/>
<path d="M0 0 C1.65 0.33 3.3 0.66 5 1 C5 1.66 5 2.32 5 3 C5.66 3 6.32 3 7 3 C6.9375 4.8125 6.9375 4.8125 6 7 C2.625 8.8125 2.625 8.8125 -1 10 C-1.99 9.67 -2.98 9.34 -4 9 C-1 7 -1 7 2 7 C2 6.01 2 5.02 2 4 C1.01 3.34 0.02 2.68 -1 2 C-0.67 1.34 -0.34 0.68 0 0 Z " fill="#5A5C5B" transform="translate(239,393)"/>
<path d="M0 0 C0.66 0 1.32 0 2 0 C2 5.94 2 11.88 2 18 C3.32 18 4.64 18 6 18 C6 18.66 6 19.32 6 20 C4.33388095 20.042721 2.66617115 20.04063832 1 20 C0 19 0 19 -0.11352539 17.14233398 C-0.10828857 16.35157471 -0.10305176 15.56081543 -0.09765625 14.74609375 C-0.09443359 13.89208984 -0.09121094 13.03808594 -0.08789062 12.15820312 C-0.07951172 11.26037109 -0.07113281 10.36253906 -0.0625 9.4375 C-0.05798828 8.53580078 -0.05347656 7.63410156 -0.04882812 6.70507812 C-0.03700225 4.46998686 -0.0205222 2.23502563 0 0 Z " fill="#222324" transform="translate(121,382)"/>
<path d="M0 0 C0.66 0.33 1.32 0.66 2 1 C1.875 2.875 1.875 2.875 1 5 C-2.0625 6.25 -2.0625 6.25 -5 7 C-6.5 5.625 -6.5 5.625 -8 4 C-8 3.34 -8 2.68 -8 2 C-7.34 2 -6.68 2 -6 2 C-6 1.34 -6 0.68 -6 0 C-3 -1 -3 -1 0 0 Z " fill="#4A4A4A" transform="translate(150,378)"/>
<path d="M0 0 C1.24910156 -0.01836914 1.24910156 -0.01836914 2.5234375 -0.03710938 C3.71839844 -0.04000977 3.71839844 -0.04000977 4.9375 -0.04296875 C6.03384766 -0.04913208 6.03384766 -0.04913208 7.15234375 -0.05541992 C9 0.1875 9 0.1875 11 2.1875 C3.98194143 3.28837193 -2.90565767 3.28483092 -10 3.1875 C-10.33 2.5275 -10.66 1.8675 -11 1.1875 C-7.58173253 -0.52163373 -3.76645237 0.00291521 0 0 Z " fill="#141615" transform="translate(228,209.8125)"/>
<path d="M0 0 C0.99 0.99 1.98 1.98 3 3 C3.99 2.34 4.98 1.68 6 1 C7.38226016 3.76452033 7.09525387 6.0461363 7.0625 9.125 C7.05347656 10.22070312 7.04445312 11.31640625 7.03515625 12.4453125 C7.02355469 13.28835938 7.01195312 14.13140625 7 15 C6.67 15 6.34 15 6 15 C5.67 12.36 5.34 9.72 5 7 C4.01 7.99 3.02 8.98 2 10 C0.68373308 6.38026598 0 3.90432869 0 0 Z " fill="#545454" transform="translate(165,387)"/>
<path d="M0 0 C4.67692308 1.47692308 4.67692308 1.47692308 6.3125 4.125 C6.539375 4.74375 6.76625 5.3625 7 6 C4.69 7.32 2.38 8.64 0 10 C0 9.34 0 8.68 0 8 C0.66 8 1.32 8 2 8 C1.67 6.68 1.34 5.36 1 4 C-0.98 4 -2.96 4 -5 4 C-3.35 2.68 -1.7 1.36 0 0 Z " fill="#797A7B" transform="translate(265,392)"/>
<path d="M0 0 C-0.16298584 0.56170898 -0.32597168 1.12341797 -0.49389648 1.70214844 C-1.02985098 4.13553181 -1.11361396 6.27622228 -1.09765625 8.765625 C-1.09443359 9.65507812 -1.09121094 10.54453125 -1.08789062 11.4609375 C-1.07951172 12.38132812 -1.07113281 13.30171875 -1.0625 14.25 C-1.05798828 15.18585938 -1.05347656 16.12171875 -1.04882812 17.0859375 C-1.03706918 19.39069041 -1.02063426 21.69531227 -1 24 C-1.66 24 -2.32 24 -3 24 C-3.33 17.07 -3.66 10.14 -4 3 C-6.31 2.67 -8.62 2.34 -11 2 C-11 1.67 -11 1.34 -11 1 C-7.26513121 0.4254048 -3.78706732 0 0 0 Z " fill="#78797A" transform="translate(123,378)"/>
<path d="M0 0 C2.05078125 0.29296875 4.1015625 0.5859375 6.15234375 0.87890625 C6.76207031 0.91886719 7.37179688 0.95882813 8 1 C8.33 0.67 8.66 0.34 9 0 C10.99958364 -0.04080783 13.00045254 -0.04254356 15 0 C15 0.33 15 0.66 15 1 C14.28972656 1.18175781 13.57945312 1.36351562 12.84765625 1.55078125 C11.92855469 1.80214844 11.00945312 2.05351562 10.0625 2.3125 C8.68771484 2.67794922 8.68771484 2.67794922 7.28515625 3.05078125 C6.53105469 3.36402344 5.77695313 3.67726563 5 4 C4.67 4.99 4.34 5.98 4 7 C3.01 7 2.02 7 1 7 C0.67 4.69 0.34 2.38 0 0 Z " fill="#666666" transform="translate(165,378)"/>
<path d="M0 0 C1.58554687 -0.00386719 1.58554687 -0.00386719 3.203125 -0.0078125 C5.75 0.125 5.75 0.125 6.75 1.125 C8.09747084 1.35575082 9.45377565 1.53653063 10.8125 1.6875 C12.111875 1.831875 13.41125 1.97625 14.75 2.125 C14.75 2.455 14.75 2.785 14.75 3.125 C6.03299826 3.26868684 -2.56320899 2.84461582 -11.25 2.125 C-11.25 1.795 -11.25 1.465 -11.25 1.125 C-7.44389583 0.23690903 -3.90502933 -0.0096183 0 0 Z " fill="#5E5F60" transform="translate(255.25,211.875)"/>
<path d="M0 0 C0.6824176 0.02361099 1.36483521 0.04722198 2.06793213 0.07154846 C4.23822558 0.14785585 6.40813214 0.23202031 8.578125 0.31640625 C10.05336676 0.36965998 11.52862716 0.42240014 13.00390625 0.47460938 C16.61221412 0.60342575 20.2202171 0.73928819 23.828125 0.87890625 C23.828125 1.20890625 23.828125 1.53890625 23.828125 1.87890625 C19.16545343 2.07106392 14.5025358 2.24980116 9.83886719 2.41601562 C8.25181221 2.47448265 6.66488881 2.53664139 5.078125 2.60253906 C2.79972287 2.69652315 0.5211802 2.77730148 -1.7578125 2.85546875 C-2.46932465 2.8876651 -3.18083679 2.91986145 -3.91390991 2.95303345 C-5.66592233 3.00653755 -7.42055584 2.9516481 -9.171875 2.87890625 C-9.831875 2.21890625 -10.491875 1.55890625 -11.171875 0.87890625 C-7.41306409 -0.35057265 -3.92499613 -0.14477445 0 0 Z " fill="#0D531A" transform="translate(218.171875,337.12109375)"/>
<path d="M0 0 C0.33 0.99 0.66 1.98 1 3 C-0.1875 4.5 -0.1875 4.5 -2 6 C-4.6875 6.1875 -4.6875 6.1875 -7 6 C-7 5.34 -7 4.68 -7 4 C-7.66 3.34 -8.32 2.68 -9 2 C-5.86501708 0.14223235 -3.62528568 -0.20140476 0 0 Z " fill="#282828" transform="translate(180,379)"/>
<path d="M0 0 C0.33 0 0.66 0 1 0 C1 4.29 1 8.58 1 13 C-4.61 13 -10.22 13 -16 13 C-16 12.67 -16 12.34 -16 12 C-11.05 11.67 -6.1 11.34 -1 11 C-0.67 7.37 -0.34 3.74 0 0 Z " fill="#393A3D" transform="translate(278,201)"/>
<path d="M0 0 C4.95 0 9.9 0 15 0 C15 5.61 15 11.22 15 17 C14.67 17 14.34 17 14 17 C13.67 12.38 13.34 7.76 13 3 C9.84877745 2.36975549 6.85641121 1.81347252 3.6875 1.4375 C2.470625 1.293125 1.25375 1.14875 0 1 C0 0.67 0 0.34 0 0 Z " fill="#4C6A4F" transform="translate(264,217)"/>
<path d="M0 0 C0.04254356 1.99954746 0.04080783 4.00041636 0 6 C-1 7 -1 7 -3.5625 7.0625 C-4.7690625 7.0315625 -4.7690625 7.0315625 -6 7 C-6.33 6.01 -6.66 5.02 -7 4 C-4.95178546 1.75671741 -3.30858805 0 0 0 Z " fill="#4E4E4E" transform="translate(271,381)"/>
<path d="M0 0 C0.66 0.33 1.32 0.66 2 1 C2 5.62 2 10.24 2 15 C0.02 15 -1.96 15 -4 15 C-2.68 14.34 -1.36 13.68 0 13 C0 8.71 0 4.42 0 0 Z " fill="#255431" transform="translate(276,219)"/>
<path d="M0 0 C1.98 0.99 1.98 0.99 4 2 C3.01 2.33 2.02 2.66 1 3 C0.67 2.01 0.34 1.02 0 0 Z M-1 4 C0.32229189 6.64458379 0.09677194 8.67761301 0.0625 11.625 C0.05347656 12.62789063 0.04445312 13.63078125 0.03515625 14.6640625 C0.02355469 15.43492187 0.01195312 16.20578125 0 17 C-0.33 17 -0.66 17 -1 17 C-1.66 14.03 -2.32 11.06 -3 8 C-4.65 8.33 -6.3 8.66 -8 9 C-8 8.34 -8 7.68 -8 7 C-5.69 6.01 -3.38 5.02 -1 4 Z " fill="#B4B4B4" transform="translate(180,379)"/>
<path d="M0 0 C0.99 0.495 0.99 0.495 2 1 C2 1.99 2 2.98 2 4 C2.99 4.33 3.98 4.66 5 5 C5.33 4.34 5.66 3.68 6 3 C6 4.98 6 6.96 6 9 C4.33388095 9.042721 2.66617115 9.04063832 1 9 C0 8 0 8 -0.09765625 6.15234375 C-0.06510417 4.1015625 -0.03255208 2.05078125 0 0 Z " fill="#272829" transform="translate(274,393)"/>
<path d="M0 0 C0.33 0 0.66 0 1 0 C1.144375 0.9075 1.28875 1.815 1.4375 2.75 C1.86409473 5.21476956 2.35074221 7.58847107 3 10 C2.34 10 1.68 10 1 10 C1 11.32 1 12.64 1 14 C4.3 14 7.6 14 11 14 C11 14.33 11 14.66 11 15 C7.37 15 3.74 15 0 15 C0 10.05 0 5.1 0 0 Z " fill="#303031" transform="translate(182,327)"/>
<path d="M0 0 C2.125 0.9375 2.125 0.9375 4 2 C3.01 2.33 2.02 2.66 1 3 C-0.0541518 6.16245541 -0.31275672 8.86948218 -0.5625 12.1875 C-0.64628906 13.27417969 -0.73007813 14.36085938 -0.81640625 15.48046875 C-0.87699219 16.31191406 -0.93757812 17.14335937 -1 18 C-1.33 18 -1.66 18 -2 18 C-2 12.39 -2 6.78 -2 1 C-1.34 0.67 -0.68 0.34 0 0 Z " fill="#818384" transform="translate(210,382)"/>
<path d="M0 0 C0.99 0 1.98 0 3 0 C3 0.66 3 1.32 3 2 C5.97 2 8.94 2 12 2 C12.33 2.66 12.66 3.32 13 4 C11.54364629 4.22174933 10.08477044 4.42698698 8.625 4.625 C7.81289062 4.74101562 7.00078125 4.85703125 6.1640625 4.9765625 C5.44992188 4.98429688 4.73578125 4.99203125 4 5 C3.34 4.34 2.68 3.68 2 3 C1.01 3.495 1.01 3.495 0 4 C0 2.68 0 1.36 0 0 Z " fill="#424144" transform="translate(120,199)"/>
<path d="M0 0 C2.64 0 5.28 0 8 0 C9.28317892 3.84953676 9.06643637 6.94738135 9 11 C8.34 10.67 7.68 10.34 7 10 C6.5859375 7.93359375 6.5859375 7.93359375 6.375 5.4375 C6.30023438 4.61121094 6.22546875 3.78492188 6.1484375 2.93359375 C6.09945312 2.29550781 6.05046875 1.65742188 6 1 C4.02 1 2.04 1 0 1 C0 0.67 0 0.34 0 0 Z " fill="#23592A" transform="translate(235,326)"/>
<path d="M0 0 C2.62187494 1.04874998 3.79371361 1.64931313 5.25 4.125 C5.4975 4.74375 5.745 5.3625 6 6 C7.98 6 9.96 6 12 6 C12 6.33 12 6.66 12 7 C7.87853942 7.32325181 5.6324266 7.39022067 2.0625 5.1875 C0 3 0 3 0 0 Z " fill="#7A7B7B" transform="translate(251,396)"/>
<path d="M0 0 C2.0625 0.4375 2.0625 0.4375 4 1 C4.33 2.98 4.66 4.96 5 7 C4.67 6.01 4.34 5.02 4 4 C2.02 4.33 0.04 4.66 -2 5 C-1.125 1.125 -1.125 1.125 0 0 Z " fill="#515251" transform="translate(182,381)"/>
<path d="M0 0 C2.375 -0.1875 2.375 -0.1875 5 0 C5.66 0.99 6.32 1.98 7 3 C5.824375 3.433125 5.824375 3.433125 4.625 3.875 C1.90328368 4.84912254 1.90328368 4.84912254 0 7 C-1.125 2.25 -1.125 2.25 0 0 Z " fill="#131216" transform="translate(122,203)"/>
<path d="M0 0 C0.99 0.66 1.98 1.32 3 2 C3.29296875 4.1640625 3.29296875 4.1640625 3.1875 6.625 C3.16042969 7.44226563 3.13335937 8.25953125 3.10546875 9.1015625 C3.07066406 9.72804688 3.03585938 10.35453125 3 11 C2.34 11 1.68 11 1 11 C1 10.34 1 9.68 1 9 C0.01 9.33 -0.98 9.66 -2 10 C-2 9.34 -2 8.68 -2 8 C-1.01 7.34 -0.02 6.68 1 6 C0.67 4.02 0.34 2.04 0 0 Z " fill="#AFAEAF" transform="translate(246,384)"/>
<path d="M0 0 C2.475 0.99 2.475 0.99 5 2 C5 2.66 5 3.32 5 4 C2.36 4.33 -0.28 4.66 -3 5 C-3 4.34 -3 3.68 -3 3 C-2.34 3 -1.68 3 -1 3 C-0.67 2.01 -0.34 1.02 0 0 Z " fill="#292929" transform="translate(228,381)"/>
<path d="M0 0 C0.33 0 0.66 0 1 0 C1.1546875 1.8871875 1.1546875 1.8871875 1.3125 3.8125 C1.64858808 6.60499657 1.80025876 7.74433121 3.5625 10 C4.036875 10.33 4.51125 10.66 5 11 C3.0625 11.5625 3.0625 11.5625 1 12 C0 11 0 11 -0.09765625 8.49609375 C-0.08605469 7.48675781 -0.07445312 6.47742188 -0.0625 5.4375 C-0.05347656 4.42558594 -0.04445313 3.41367187 -0.03515625 2.37109375 C-0.02355469 1.58863281 -0.01195312 0.80617188 0 0 Z " fill="#696969" transform="translate(288,391)"/>
<path d="M0 0 C2.86724686 0.57344937 3.8614515 0.8614515 6 3 C5.01 3.99 4.02 4.98 3 6 C1.68 4.68 0.36 3.36 -1 2 C-0.67 1.34 -0.34 0.68 0 0 Z " fill="#282828" transform="translate(140,385)"/>
<path d="M0 0 C4.95 0.99 4.95 0.99 10 2 C10 2.66 10 3.32 10 4 C7.25 4.25 7.25 4.25 4 4 C1.625 2 1.625 2 0 0 Z " fill="#486F52" transform="translate(204,338)"/>
<path d="M0 0 C2 2 2 2 2 6 C2.66 6.33 3.32 6.66 4 7 C3.01 7.495 3.01 7.495 2 8 C1.34444881 10.52733235 1.34444881 10.52733235 1 13 C0.67 13 0.34 13 0 13 C0 8.71 0 4.42 0 0 Z " fill="#404040" transform="translate(164,379)"/>
<path d="M0 0 C1.9375 0.75 1.9375 0.75 4 2 C4.75 4.125 4.75 4.125 5 6 C3.35 5.67 1.7 5.34 0 5 C0 3.35 0 1.7 0 0 Z " fill="#696969" transform="translate(241,380)"/>
<path d="M0 0 C3.3 0 6.6 0 10 0 C9.67 0.66 9.34 1.32 9 2 C6.35139573 2.59355614 3.70802678 2.74209269 1 3 C0.67 2.01 0.34 1.02 0 0 Z " fill="#111213" transform="translate(206,211)"/>
<path d="M0 0 C0.99 0.66 1.98 1.32 3 2 C-3.625 5.125 -3.625 5.125 -7 4 C-4.69 2.68 -2.38 1.36 0 0 Z " fill="#737474" transform="translate(242,398)"/>
<path d="M0 0 C2.6875 0.3125 2.6875 0.3125 5 1 C5 1.66 5 2.32 5 3 C2.36 3 -0.28 3 -3 3 C-1.8125 1.4375 -1.8125 1.4375 0 0 Z " fill="#444346" transform="translate(202,211)"/>
<path d="M0 0 C1.32 0.66 2.64 1.32 4 2 C4 2.99 4 3.98 4 5 C2.68 5.33 1.36 5.66 0 6 C-0.38218767 4.34385343 -0.71395102 2.67542976 -1 1 C-0.67 0.67 -0.34 0.34 0 0 Z " fill="#343434" transform="translate(170,381)"/>
<path d="M0 0 C0.33 0 0.66 0 1 0 C1 1.65 1 3.3 1 5 C0.67 5 0.34 5 0 5 C0 3.35 0 1.7 0 0 Z " fill="#FFFFFF" transform="translate(198,373)"/>
<path d="M0 0 C2 1 2 1 2 1 Z " fill="#FFFFFF" transform="translate(235,394)"/>
</svg>
